<mxfile host="app.diagrams.net" modified="2024-01-25T15:21:30.388Z" agent="Mozilla/5.0 (Windows NT 10.0; Win64; x64) AppleWebKit/537.36 (KHTML, like Gecko) Chrome/121.0.0.0 Safari/537.36" etag="4mslp1JTyl7hOV1GtSO9" version="22.1.18" type="device">
  <diagram id="C5RBs43oDa-KdzZeNtuy" name="Page-1">
    <mxGraphModel dx="1430" dy="828" grid="1" gridSize="10" guides="1" tooltips="1" connect="1" arrows="1" fold="1" page="1" pageScale="1" pageWidth="827" pageHeight="1169" math="0" shadow="0">
      <root>
        <mxCell id="WIyWlLk6GJQsqaUBKTNV-0" />
        <mxCell id="WIyWlLk6GJQsqaUBKTNV-1" parent="WIyWlLk6GJQsqaUBKTNV-0" />
        <mxCell id="eihWlbTGyU0kAGqfzCx7-3" style="edgeStyle=orthogonalEdgeStyle;rounded=0;orthogonalLoop=1;jettySize=auto;html=1;" edge="1" parent="WIyWlLk6GJQsqaUBKTNV-1" source="eihWlbTGyU0kAGqfzCx7-0" target="eihWlbTGyU0kAGqfzCx7-1">
          <mxGeometry relative="1" as="geometry" />
        </mxCell>
        <mxCell id="eihWlbTGyU0kAGqfzCx7-0" value="SecondArray" style="rounded=1;whiteSpace=wrap;html=1;" vertex="1" parent="WIyWlLk6GJQsqaUBKTNV-1">
          <mxGeometry x="354" y="40" width="120" height="60" as="geometry" />
        </mxCell>
        <mxCell id="eihWlbTGyU0kAGqfzCx7-5" style="edgeStyle=orthogonalEdgeStyle;rounded=0;orthogonalLoop=1;jettySize=auto;html=1;" edge="1" parent="WIyWlLk6GJQsqaUBKTNV-1" source="eihWlbTGyU0kAGqfzCx7-1" target="eihWlbTGyU0kAGqfzCx7-4">
          <mxGeometry relative="1" as="geometry" />
        </mxCell>
        <mxCell id="eihWlbTGyU0kAGqfzCx7-1" value="string[] array1&lt;br&gt;string array2&lt;br&gt;int count = 0" style="shape=parallelogram;perimeter=parallelogramPerimeter;whiteSpace=wrap;html=1;fixedSize=1;" vertex="1" parent="WIyWlLk6GJQsqaUBKTNV-1">
          <mxGeometry x="354" y="160" width="120" height="60" as="geometry" />
        </mxCell>
        <mxCell id="eihWlbTGyU0kAGqfzCx7-7" style="edgeStyle=orthogonalEdgeStyle;rounded=0;orthogonalLoop=1;jettySize=auto;html=1;" edge="1" parent="WIyWlLk6GJQsqaUBKTNV-1" source="eihWlbTGyU0kAGqfzCx7-4" target="eihWlbTGyU0kAGqfzCx7-6">
          <mxGeometry relative="1" as="geometry" />
        </mxCell>
        <mxCell id="eihWlbTGyU0kAGqfzCx7-4" value="for(int i = 0;&lt;br&gt;i &amp;lt; array1.length;&lt;br&gt;i++)" style="shape=hexagon;perimeter=hexagonPerimeter2;whiteSpace=wrap;html=1;fixedSize=1;" vertex="1" parent="WIyWlLk6GJQsqaUBKTNV-1">
          <mxGeometry x="354" y="270" width="120" height="80" as="geometry" />
        </mxCell>
        <mxCell id="eihWlbTGyU0kAGqfzCx7-10" style="edgeStyle=orthogonalEdgeStyle;rounded=0;orthogonalLoop=1;jettySize=auto;html=1;entryX=1;entryY=0.5;entryDx=0;entryDy=0;" edge="1" parent="WIyWlLk6GJQsqaUBKTNV-1" source="eihWlbTGyU0kAGqfzCx7-6" target="eihWlbTGyU0kAGqfzCx7-4">
          <mxGeometry relative="1" as="geometry">
            <Array as="points">
              <mxPoint x="600" y="450" />
              <mxPoint x="600" y="310" />
            </Array>
          </mxGeometry>
        </mxCell>
        <mxCell id="eihWlbTGyU0kAGqfzCx7-15" value="NO" style="edgeLabel;html=1;align=center;verticalAlign=middle;resizable=0;points=[];" vertex="1" connectable="0" parent="eihWlbTGyU0kAGqfzCx7-10">
          <mxGeometry x="-0.7793" y="1" relative="1" as="geometry">
            <mxPoint as="offset" />
          </mxGeometry>
        </mxCell>
        <mxCell id="eihWlbTGyU0kAGqfzCx7-13" style="edgeStyle=orthogonalEdgeStyle;rounded=0;orthogonalLoop=1;jettySize=auto;html=1;entryX=0.5;entryY=1;entryDx=0;entryDy=0;" edge="1" parent="WIyWlLk6GJQsqaUBKTNV-1" source="eihWlbTGyU0kAGqfzCx7-6" target="eihWlbTGyU0kAGqfzCx7-12">
          <mxGeometry relative="1" as="geometry" />
        </mxCell>
        <mxCell id="eihWlbTGyU0kAGqfzCx7-14" value="YES" style="edgeLabel;html=1;align=center;verticalAlign=middle;resizable=0;points=[];" vertex="1" connectable="0" parent="eihWlbTGyU0kAGqfzCx7-13">
          <mxGeometry x="-0.4194" y="1" relative="1" as="geometry">
            <mxPoint as="offset" />
          </mxGeometry>
        </mxCell>
        <mxCell id="eihWlbTGyU0kAGqfzCx7-6" value="if(array1[i].length &amp;lt;= 3)" style="rhombus;whiteSpace=wrap;html=1;" vertex="1" parent="WIyWlLk6GJQsqaUBKTNV-1">
          <mxGeometry x="311" y="410" width="206" height="80" as="geometry" />
        </mxCell>
        <mxCell id="eihWlbTGyU0kAGqfzCx7-16" style="edgeStyle=orthogonalEdgeStyle;rounded=0;orthogonalLoop=1;jettySize=auto;html=1;" edge="1" parent="WIyWlLk6GJQsqaUBKTNV-1" source="eihWlbTGyU0kAGqfzCx7-12" target="eihWlbTGyU0kAGqfzCx7-4">
          <mxGeometry relative="1" as="geometry" />
        </mxCell>
        <mxCell id="eihWlbTGyU0kAGqfzCx7-12" value="array2[count] = array1[i]&lt;br&gt;count++" style="rounded=0;whiteSpace=wrap;html=1;" vertex="1" parent="WIyWlLk6GJQsqaUBKTNV-1">
          <mxGeometry x="120" y="280" width="140" height="60" as="geometry" />
        </mxCell>
      </root>
    </mxGraphModel>
  </diagram>
</mxfile>
